<svg xmlns="http://www.w3.org/2000/svg" data-name="Layer 1" viewBox="0 0 64 64" id="Copy"><path fill="none" stroke="#f8a427" stroke-linecap="round" stroke-linejoin="round" stroke-width="2" d="M47,17v6a2,2,0,0,0,2,2h6l-8-8H41V46a2,2,0,0,1-2,2H11a2,2,0,0,1-2-2V7a2,2,0,0,1,2-2H33l8,8H35a2,2,0,0,1-2-2V5" class="colorStroke37a849 svgStroke"></path><path fill="none" stroke="#f8a427" stroke-linecap="round" stroke-linejoin="round" stroke-width="2" d="M55,29V57a2,2,0,0,1-2,2H25a2,2,0,0,1-2-2V48" class="colorStroke37a849 svgStroke"></path></svg>